<svg width="24" height="24" viewBox="0 0 24 24" fill="none" xmlns="http://www.w3.org/2000/svg">
<path d="M19.8 3L4.2 3C3.88174 3 3.57652 3.12643 3.35147 3.35147C3.12643 3.57652 3 3.88174 3 4.2L3 19.8C3 20.1183 3.12643 20.4235 3.35147 20.6485C3.57652 20.8736 3.88174 21 4.2 21L19.8 21C20.1183 21 20.4235 20.8736 20.6485 20.6485C20.8736 20.4235 21 20.1183 21 19.8L21 4.2C21 3.88174 20.8736 3.57652 20.6485 3.35147C20.4235 3.12643 20.1183 3 19.8 3ZM8.3322 18.3564H5.6244L5.6244 9.75H8.3322L8.3322 18.3564ZM6.978 8.5686C6.6667 8.56765 6.36266 8.47447 6.10429 8.30083C5.84591 8.1272 5.64479 7.88088 5.52632 7.59301C5.40784 7.30513 5.37734 6.9886 5.43865 6.6834C5.49996 6.3782 5.65035 6.09801 5.8708 5.87822C6.09126 5.65843 6.37191 5.5089 6.67729 5.44852C6.98268 5.38814 7.29912 5.41961 7.58663 5.53895C7.87414 5.6583 8.11984 5.86018 8.29269 6.11908C8.46555 6.37798 8.5578 6.6823 8.5578 6.9936C8.55788 7.20086 8.51704 7.40609 8.43761 7.59753C8.35819 7.78897 8.24175 7.96284 8.09497 8.10917C7.9482 8.2555 7.77397 8.37141 7.58229 8.45025C7.39062 8.52909 7.18526 8.56931 6.978 8.5686ZM18.3726 18.3564H15.72V14.1936C15.72 13.1814 15.72 11.9436 14.31 11.9436C12.9 11.9436 12.7302 13.0128 12.7302 14.1372V18.4128H10.08L10.08 9.75L12.5616 9.75V10.9314H12.618C12.8739 10.4889 13.2453 10.1243 13.6925 9.87657C14.1396 9.62885 14.6457 9.50732 15.1566 9.525C17.8644 9.525 18.372 11.325 18.372 13.6314L18.3726 18.3564Z" fill="#255ABB"/>
</svg>
